<svg width="30" height="30" viewBox="0 0 30 30" fill="none" xmlns="http://www.w3.org/2000/svg">
<rect width="30" height="30" rx="15" fill="#292929"/>
<g clip-path="url(#clip0_3_631)">
<path d="M15.9609 15.1423C15.9609 17.499 14.0668 19.4095 11.7305 19.4095C9.39421 19.4095 7.5 17.4986 7.5 15.1423C7.5 12.786 9.39406 10.875 11.7305 10.875C14.067 10.875 15.9609 12.7856 15.9609 15.1423Z" fill="white"/>
<path d="M20.6016 15.1419C20.6016 17.3602 19.6546 19.1592 18.4864 19.1592C17.3181 19.1592 16.3711 17.3602 16.3711 15.1419C16.3711 12.9235 17.318 11.1245 18.4862 11.1245C19.6544 11.1245 20.6015 12.923 20.6015 15.1419" fill="white"/>
<path d="M22.4999 15.1424C22.4999 17.1294 22.1669 18.7413 21.756 18.7413C21.3451 18.7413 21.0122 17.1299 21.0122 15.1424C21.0122 13.1549 21.3452 11.5435 21.756 11.5435C22.1668 11.5435 22.4999 13.1547 22.4999 15.1424Z" fill="white"/>
</g>
<defs>
<clipPath id="clip0_3_631">
<rect width="15" height="15" fill="white" transform="translate(7.5 7.5)"/>
</clipPath>
</defs>
</svg>
