<svg width="30" height="30" viewBox="0 0 30 30" fill="none" xmlns="http://www.w3.org/2000/svg">
<rect width="30" height="30" rx="15" fill="#292929"/>
<path d="M21.75 15.1129C21.75 14.247 21.0857 13.5443 20.2671 13.5443C19.8638 13.5443 19.5079 13.7074 19.2469 13.9835C18.2386 13.218 16.8388 12.716 15.2966 12.6533L15.9728 9.30266L18.1674 9.79208C18.1911 10.3819 18.6538 10.8588 19.2232 10.8588C19.8045 10.8588 20.279 10.3568 20.279 9.74188C20.279 9.12697 19.8045 8.625 19.2232 8.625C18.808 8.625 18.4521 8.87598 18.286 9.25246L15.8304 8.7003C15.7592 8.68775 15.688 8.7003 15.6287 8.73794C15.5694 8.77559 15.5338 8.83834 15.5101 8.91363L14.7627 12.6533C13.185 12.7035 11.7733 13.1929 10.7531 13.9835C10.4921 13.72 10.1243 13.5443 9.73286 13.5443C8.91432 13.5443 8.25 14.247 8.25 15.1129C8.25 15.753 8.60589 16.2926 9.12786 16.5436C9.10413 16.6941 9.09227 16.8573 9.09227 17.0204C9.09227 19.4299 11.7377 21.375 15.0119 21.375C18.286 21.375 20.9315 19.4299 20.9315 17.0204C20.9315 16.8573 20.9196 16.7067 20.8959 16.5561C21.3822 16.3051 21.75 15.753 21.75 15.1129ZM11.6072 16.2298C11.6072 15.6149 12.0817 15.1129 12.663 15.1129C13.2443 15.1129 13.7188 15.6149 13.7188 16.2298C13.7188 16.8447 13.2443 17.3467 12.663 17.3467C12.0817 17.3467 11.6072 16.8447 11.6072 16.2298ZM17.5031 19.1789C16.7794 19.9444 15.4033 19.9946 15 19.9946C14.5967 19.9946 13.2087 19.9318 12.4969 19.1789C12.3902 19.0659 12.3902 18.8777 12.4969 18.7648C12.6037 18.6518 12.7816 18.6518 12.8884 18.7648C13.3392 19.2416 14.312 19.4173 15.0119 19.4173C15.7118 19.4173 16.6727 19.2416 17.1353 18.7648C17.2421 18.6518 17.42 18.6518 17.5268 18.7648C17.6098 18.8903 17.6098 19.0659 17.5031 19.1789ZM17.3133 17.3467C16.732 17.3467 16.2575 16.8447 16.2575 16.2298C16.2575 15.6149 16.732 15.1129 17.3133 15.1129C17.8946 15.1129 18.3691 15.6149 18.3691 16.2298C18.3691 16.8447 17.8946 17.3467 17.3133 17.3467Z" fill="white"/>
</svg>
