<svg width="30" height="30" viewBox="0 0 30 30" fill="none" xmlns="http://www.w3.org/2000/svg">
<rect width="30" height="30" rx="15" fill="#292929"/>
<g clip-path="url(#clip0_3_627)">
<path d="M20.151 10.7409C19.2036 10.3062 18.1877 9.98596 17.1255 9.80253C17.1062 9.79899 17.0869 9.80783 17.0769 9.82553C16.9462 10.0579 16.8015 10.3611 16.7002 10.5994C15.5577 10.4283 14.4211 10.4283 13.302 10.5994C13.2007 10.3558 13.0507 10.0579 12.9195 9.82553C12.9095 9.80842 12.8902 9.79958 12.8708 9.80253C11.8092 9.98537 10.7933 10.3056 9.84534 10.7409C9.83714 10.7445 9.8301 10.7504 9.82543 10.758C7.89846 13.6369 7.37058 16.445 7.62954 19.2183C7.63071 19.2318 7.63833 19.2448 7.64887 19.2531C8.92024 20.1867 10.1518 20.7535 11.3604 21.1292C11.3798 21.1351 11.4003 21.1281 11.4126 21.1121C11.6985 20.7217 11.9534 20.31 12.1719 19.8771C12.1848 19.8517 12.1725 19.8216 12.1461 19.8116C11.7418 19.6582 11.3569 19.4713 10.9866 19.259C10.9573 19.2419 10.955 19.2 10.9819 19.1799C11.0599 19.1215 11.1378 19.0608 11.2122 18.9994C11.2257 18.9882 11.2444 18.9859 11.2603 18.9929C13.6928 20.1036 16.3264 20.1036 18.7302 18.9929C18.7461 18.9853 18.7648 18.9876 18.7789 18.9988C18.8533 19.0602 18.9312 19.1215 19.0097 19.1799C19.0367 19.2 19.0349 19.2419 19.0056 19.259C18.6353 19.4754 18.2504 19.6582 17.8456 19.811C17.8192 19.821 17.8075 19.8517 17.8204 19.8771C18.0436 20.3094 18.2984 20.7211 18.5791 21.1115C18.5908 21.1281 18.6119 21.1351 18.6312 21.1292C19.8458 20.7535 21.0773 20.1867 22.3486 19.2531C22.3598 19.2448 22.3668 19.2324 22.368 19.2188C22.6779 16.0126 21.8489 13.2276 20.1703 10.7586C20.1662 10.7504 20.1592 10.7445 20.151 10.7409ZM12.5351 17.5296C11.8028 17.5296 11.1993 16.8572 11.1993 16.0315C11.1993 15.2058 11.7911 14.5334 12.5351 14.5334C13.2851 14.5334 13.8827 15.2117 13.8709 16.0315C13.8709 16.8572 13.2792 17.5296 12.5351 17.5296ZM17.4741 17.5296C16.7418 17.5296 16.1383 16.8572 16.1383 16.0315C16.1383 15.2058 16.73 14.5334 17.4741 14.5334C18.224 14.5334 18.8216 15.2117 18.8099 16.0315C18.8099 16.8572 18.224 17.5296 17.4741 17.5296Z" fill="white"/>
</g>
<defs>
<clipPath id="clip0_3_627">
<rect width="15" height="15" fill="white" transform="translate(7.5 7.5)"/>
</clipPath>
</defs>
</svg>
