<svg width="30" height="30" viewBox="0 0 30 30" fill="none" xmlns="http://www.w3.org/2000/svg">
<rect width="30" height="30" rx="15" fill="#292929"/>
<g clip-path="url(#clip0_3_629)">
<path fill-rule="evenodd" clip-rule="evenodd" d="M8.77312 13.934C12.6491 12.2453 15.2336 11.132 16.5268 10.5942C20.2191 9.0584 20.9864 8.79162 21.4864 8.78281C21.5964 8.78087 21.8423 8.80813 22.0016 8.93739C22.1361 9.04653 22.1731 9.19397 22.1909 9.29745C22.2086 9.40093 22.2306 9.63666 22.2131 9.82085C22.013 11.9232 21.1472 17.025 20.7068 19.3797C20.5204 20.376 20.1534 20.7101 19.7981 20.7428C19.026 20.8138 18.4397 20.2325 17.6919 19.7423C16.5217 18.9753 15.8607 18.4977 14.7248 17.7492C13.4121 16.8842 14.2631 16.4087 15.0112 15.6317C15.2069 15.4284 18.6088 12.3341 18.6747 12.0534C18.6829 12.0183 18.6906 11.8875 18.6128 11.8184C18.5351 11.7493 18.4203 11.7729 18.3375 11.7917C18.2202 11.8183 16.3508 13.0539 12.7294 15.4985C12.1988 15.8628 11.7181 16.0404 11.2875 16.031C10.8128 16.0208 9.89964 15.7626 9.22079 15.542C8.38815 15.2713 7.72639 15.1282 7.78402 14.6686C7.81403 14.4291 8.14373 14.1843 8.77312 13.934Z" fill="white"/>
</g>
<defs>
<clipPath id="clip0_3_629">
<rect width="15" height="15" fill="white" transform="translate(7.5 6.87598)"/>
</clipPath>
</defs>
</svg>
