<svg width="30" height="30" viewBox="0 0 30 30" fill="none" xmlns="http://www.w3.org/2000/svg">
<rect width="30" height="30" rx="15" fill="#292929"/>
<g clip-path="url(#clip0_3_621)">
<path d="M20.6606 11.988C20.6664 12.12 20.6664 12.246 20.6664 12.378C20.6722 16.38 17.7319 21 12.3549 21C10.769 21 9.21202 20.526 7.875 19.638C8.10652 19.668 8.33804 19.68 8.56956 19.68C9.88343 19.68 11.1626 19.224 12.1986 18.378C10.9484 18.354 9.8487 17.508 9.46669 16.272C9.90658 16.362 10.358 16.344 10.7864 16.218C9.42618 15.942 8.44801 14.7 8.44222 13.254C8.44222 13.242 8.44222 13.23 8.44222 13.218C8.84738 13.452 9.30463 13.584 9.76767 13.596C8.48853 12.708 8.08916 10.938 8.86474 9.55196C10.3523 11.448 12.5401 12.594 14.89 12.72C14.6527 11.67 14.9768 10.566 15.7351 9.82196C16.91 8.67596 18.7622 8.73596 19.8735 9.95396C20.5275 9.82196 21.1584 9.56996 21.7314 9.21596C21.5115 9.91796 21.0542 10.512 20.4465 10.89C21.0253 10.818 21.5925 10.656 22.125 10.416C21.7314 11.028 21.2337 11.556 20.6606 11.988Z" fill="white"/>
</g>
<defs>
<clipPath id="clip0_3_621">
<rect width="15" height="15" fill="white" transform="translate(7.5 7.5)"/>
</clipPath>
</defs>
</svg>
